<svg width="345" height="122" viewBox="0 0 345 122" fill="none" xmlns="http://www.w3.org/2000/svg">
<g filter="url(#filter0_d_3942_4437)">
<path d="M195.915 116.5C196.223 116.5 196.536 116.405 196.76 116.14C196.969 115.892 197.03 115.574 197.03 115.277V65.9926C197.03 65.6766 196.973 65.3463 196.774 65.087C196.554 64.8018 196.235 64.6938 195.915 64.6938H190.999C190.679 64.6938 190.36 64.8018 190.14 65.087C189.941 65.3463 189.884 65.6766 189.884 65.9926V86.034H151V65.9926C151 65.6666 150.933 65.3273 150.709 65.066C150.471 64.7897 150.139 64.6938 149.814 64.6938H144.967C144.642 64.6938 144.31 64.7895 144.072 65.0635C143.845 65.3242 143.775 65.6638 143.775 65.9926V115.277C143.775 115.589 143.851 115.916 144.087 116.163C144.327 116.415 144.652 116.5 144.967 116.5H149.814C150.129 116.5 150.454 116.415 150.693 116.161C150.927 115.912 151 115.586 151 115.277V93.7049H189.884V115.277C189.884 115.574 189.945 115.892 190.154 116.14C190.378 116.405 190.691 116.5 190.999 116.5H195.915Z" fill="#D9D9D9" stroke="#D9D9D9"/>
<path d="M244.481 116.5C244.789 116.5 245.103 116.406 245.327 116.141C245.537 115.892 245.597 115.574 245.597 115.277V110.134C245.597 109.838 245.536 109.521 245.325 109.274C245.101 109.011 244.788 108.917 244.481 108.917H209.481V93.7049H243.328C243.653 93.7049 243.97 93.5928 244.188 93.3082C244.386 93.0492 244.443 92.7203 244.443 92.4061V87.3455C244.443 87.0309 244.386 86.7019 244.192 86.4416C243.977 86.1547 243.66 86.034 243.328 86.034H209.481V72.352H244.481C244.805 72.352 245.124 72.2402 245.343 71.9537C245.541 71.6936 245.597 71.363 245.597 71.0468V65.9926C245.597 65.6767 245.541 65.3461 245.341 65.0866C245.121 64.8014 244.801 64.6938 244.481 64.6938H203.45C203.123 64.6938 202.79 64.7882 202.549 65.0626C202.321 65.3239 202.252 65.6646 202.252 65.9926V115.277C202.252 115.588 202.327 115.916 202.565 116.164C202.807 116.416 203.133 116.5 203.45 116.5H244.481Z" fill="#D9D9D9" stroke="#D9D9D9"/>
<path d="M288.898 116.5C289.213 116.5 289.538 116.415 289.779 116.164C290.016 115.916 290.091 115.589 290.091 115.277V110.134C290.091 109.823 290.015 109.498 289.778 109.251C289.537 109.001 289.212 108.917 288.898 108.917H255.512V65.9926C255.512 65.6645 255.443 65.3247 255.216 65.0638C254.978 64.7893 254.646 64.6938 254.32 64.6938H249.475C249.149 64.6938 248.818 64.7897 248.58 65.066C248.356 65.3273 248.289 65.6666 248.289 65.9926V115.277C248.289 115.586 248.361 115.912 248.595 116.161C248.835 116.415 249.16 116.5 249.475 116.5H288.898Z" fill="#D9D9D9" stroke="#D9D9D9"/>
<path d="M337.599 68.4547L337.599 68.4547L337.593 68.4483C336.288 67.1364 334.542 66.1961 332.376 65.5863L332.374 65.5858C330.225 64.9908 327.693 64.6938 324.787 64.6938H292.592C292.267 64.6938 291.935 64.7893 291.696 65.0638C291.469 65.3247 291.4 65.6645 291.4 65.9926V115.277C291.4 115.588 291.475 115.915 291.711 116.163C291.952 116.415 292.277 116.5 292.592 116.5H297.739C298.065 116.5 298.402 116.422 298.657 116.182C298.917 115.937 299.008 115.604 299.008 115.277V95.3023H324.787C330.249 95.3023 334.438 94.1822 337.266 91.8582C340.114 89.5187 341.502 86.0288 341.502 81.4861C341.502 78.4574 341.167 75.8572 340.485 73.7049C339.8 71.5139 338.845 69.7537 337.599 68.4547ZM333.323 84.65L333.321 84.6536C333.003 85.3683 332.523 85.9459 331.884 86.3979L331.344 86.6494C329.96 87.2934 327.72 87.6442 324.561 87.6442H299.008V72.352H324.561C326.181 72.352 327.526 72.4564 328.614 72.6671L328.627 72.6696L328.64 72.6715C329.724 72.8224 330.621 73.0781 331.33 73.4215C332.256 73.9063 332.924 74.5846 333.326 75.4348L333.327 75.4374C333.749 76.315 333.976 77.4221 333.976 78.7593V81.2433C333.976 82.5725 333.749 83.7102 333.323 84.65Z" fill="#D9D9D9" stroke="#D9D9D9"/>
<path d="M20.5872 45.8612L33.2956 45.9016C33.2957 45.9016 33.2959 45.9016 33.296 45.9016L33.2972 45.9016L33.2956 46.4016C34.5087 46.4016 35.6263 47.1013 36.2367 48.2307L20.5872 45.8612ZM20.5872 45.8612L33.2806 22.4467L37.813 30.9187L38.14 31.5299L38.1448 31.5248L51.6552 56.7415L51.6553 56.7416C52.298 57.9404 53.5026 58.7017 54.8291 58.7019L54.8279 58.7019L54.8295 58.2019V58.7019L20.5872 45.8612ZM39.5802 58.6523C39.5801 58.6523 39.58 58.6523 39.5799 58.6523L5.12993 58.539C5.12976 58.539 5.12959 58.539 5.12942 58.539L5.12828 58.5389L5.12993 58.039L39.5802 58.6523ZM39.5802 58.6523L39.5819 58.6523L39.5836 58.1523L39.5802 58.6523ZM62.7409 58.7274L62.7424 58.7274L62.744 58.2274L62.7405 58.7274L62.7409 58.7274ZM62.7409 58.7274C64.0904 58.7366 64.8258 57.2239 64.2218 56.083L64.2208 56.0811L35.7431 2.82549C35.7428 2.82493 35.7425 2.82437 35.7422 2.82381C35.0435 1.4996 33.2444 1.50866 32.5364 2.81549L62.7409 58.7274Z" fill="#618DFE" fill-opacity="0.94403" stroke="#618DFE"/>
<path d="M199.334 56.0855C198.733 57.1835 199.447 58.6541 200.759 58.6544L231.708 2.9361C231 1.62142 229.193 1.60993 228.475 2.92082L199.334 56.085L199.334 56.0855ZM260.501 56.1946L231.708 2.93694L229.223 22.5457L233.81 31.036L234.191 31.7401L234.196 31.7329L247.807 56.8574L247.807 56.8575C248.458 58.0584 249.674 58.8083 251 58.8157L251.001 58.8157L259.011 58.8413H259.013C260.362 58.8413 261.11 57.3405 260.502 56.1976L260.501 56.1946Z" fill="#618DFE" fill-opacity="0.94403" stroke="#618DFE"/>
<path d="M95.0481 45.9133L107.757 45.9553C107.757 45.9553 107.757 45.9553 107.757 45.9553C109.168 45.9555 110.447 46.7674 111.137 48.045L111.138 48.0468L115.474 56.1444C115.474 56.1447 115.474 56.145 115.474 56.1453C116.063 57.2384 115.356 58.7138 114.041 58.7044L114.043 58.7044L114.045 58.2044L114.041 58.7044L95.0481 45.9133ZM95.0481 45.9133L107.741 22.4988M95.0481 45.9133L107.741 22.4988M112.66 31.678L126.116 56.7936L126.116 56.7937C126.759 57.9924 127.963 58.7538 129.29 58.7539L129.289 58.7539L129.29 58.2539V58.7539L126.557 56.5574L112.983 31.2224L112.66 31.678ZM112.66 31.678L112.28 30.969L112.279 30.9663L112.712 30.7343L107.741 22.4988M112.66 31.678L112.655 31.6849L112.274 30.9723L107.741 22.4988M79.5909 58.5926V58.0926L79.5892 58.5926L79.5904 58.5926C78.2815 58.5922 77.5882 57.1151 78.1755 56.0262L78.176 56.0252L106.997 2.86753C107.707 1.55811 109.505 1.55461 110.209 2.87635C110.209 2.87666 110.209 2.87697 110.209 2.87728L138.682 56.1348L138.683 56.1366C139.286 57.2762 138.559 58.7886 137.202 58.7795L137.203 58.7795L137.205 58.2795L137.201 58.7795L79.5909 58.5926Z" fill="#618DFE" fill-opacity="0.94403" stroke="#618DFE"/>
<path d="M150.281 22.0939H149.781V22.5939V32.7344V33.2344H150.281H154.78L182.062 58.0578L182.063 58.0591C182.574 58.5202 183.224 58.7742 183.9 58.7742H197.089C197.515 58.7795 197.81 58.4927 197.918 58.1823C198.025 57.8735 197.972 57.4806 197.676 57.207L197.676 57.207L197.671 57.2032L164.645 27.4284L197.103 3.12485C197.104 3.12402 197.106 3.12319 197.107 3.12237C197.451 2.86985 197.529 2.46046 197.432 2.13826C197.335 1.81381 197.037 1.50781 196.596 1.50781H183.108C182.43 1.50781 181.769 1.73297 181.223 2.14473C181.222 2.14492 181.222 2.14511 181.222 2.1453L154.576 22.0939H150.281Z" fill="#618DFE" fill-opacity="0.94403" stroke="#618DFE"/>
<path d="M151.161 58.2871L151.262 58.1129V57.9116V2.72027V2.56292L151.198 2.41884C150.898 1.73497 150.232 1.25781 149.458 1.25781H142.17C141.157 1.25781 140.402 2.11263 140.402 3.08128V57.2008C140.402 58.1694 141.157 59.0242 142.17 59.0242H149.895C150.419 59.0242 150.9 58.7377 151.161 58.2871Z" fill="#618DFE" fill-opacity="0.94403" stroke="#618DFE" stroke-width="1.5"/>
<path d="M44.2704 1.5C43.4253 1.5 42.7891 2.2115 42.7891 3.03674V11.6661C42.7891 12.4034 43.3662 13.0527 44.1281 13.0527H65.8541V57.0556C65.8541 57.8834 66.4988 58.5923 67.3369 58.5923H75.0212C75.8642 58.5923 76.4965 57.8703 76.4965 57.0556V13.0527H98.1347C98.9975 13.0527 99.6524 12.3225 99.6524 11.4792V2.91854C99.6524 2.15917 99.0604 1.5 98.2756 1.5H44.2704Z" fill="#618DFE" stroke="#618DFE"/>
</g>
<defs>
<filter id="filter0_d_3942_4437" x="0.555347" y="0.507812" width="343.899" height="121.396" filterUnits="userSpaceOnUse" color-interpolation-filters="sRGB">
<feFlood flood-opacity="0" result="BackgroundImageFix"/>
<feColorMatrix in="SourceAlpha" type="matrix" values="0 0 0 0 0 0 0 0 0 0 0 0 0 0 0 0 0 0 127 0" result="hardAlpha"/>
<feOffset dy="2.45198"/>
<feGaussianBlur stdDeviation="1.22599"/>
<feComposite in2="hardAlpha" operator="out"/>
<feColorMatrix type="matrix" values="0 0 0 0 0 0 0 0 0 0 0 0 0 0 0 0 0 0 0.25 0"/>
<feBlend mode="normal" in2="BackgroundImageFix" result="effect1_dropShadow_3942_4437"/>
<feBlend mode="normal" in="SourceGraphic" in2="effect1_dropShadow_3942_4437" result="shape"/>
</filter>
</defs>
</svg>
