<svg width="337" height="119" viewBox="0 0 337 119" fill="none" xmlns="http://www.w3.org/2000/svg">
<g clip-path="url(#clip0_4215_15071)">
<mask id="path-1-outside-1_4215_15071" maskUnits="userSpaceOnUse" x="139.276" y="64.9658" width="55" height="56" fill="black">
<rect fill="white" x="139.276" y="64.9658" width="55" height="56"/>
<path fill-rule="evenodd" clip-rule="evenodd" d="M191.915 119C192.329 119 192.53 118.745 192.53 118.245V66.7996C192.53 66.2393 192.329 65.9658 191.915 65.9658H186.999C186.586 65.9658 186.384 66.2393 186.384 66.7996V88.2419H146.5V66.7996C146.5 66.2393 146.274 65.9658 145.814 65.9658H140.968C140.507 65.9658 140.276 66.2393 140.276 66.7996V118.245C140.276 118.745 140.507 119 140.968 119H145.814C146.274 119 146.5 118.745 146.5 118.245V95.2053H186.384V118.245C186.384 118.745 186.586 119 186.999 119H191.915Z"/>
</mask>
<path fill-rule="evenodd" clip-rule="evenodd" d="M191.915 119C192.329 119 192.53 118.745 192.53 118.245V66.7996C192.53 66.2393 192.329 65.9658 191.915 65.9658H186.999C186.586 65.9658 186.384 66.2393 186.384 66.7996V88.2419H146.5V66.7996C146.5 66.2393 146.274 65.9658 145.814 65.9658H140.968C140.507 65.9658 140.276 66.2393 140.276 66.7996V118.245C140.276 118.745 140.507 119 140.968 119H145.814C146.274 119 146.5 118.745 146.5 118.245V95.2053H186.384V118.245C186.384 118.745 186.586 119 186.999 119H191.915Z" fill="#D9D9D9"/>
<path fill-rule="evenodd" clip-rule="evenodd" d="M191.915 119C192.329 119 192.53 118.745 192.53 118.245V66.7996C192.53 66.2393 192.329 65.9658 191.915 65.9658H186.999C186.586 65.9658 186.384 66.2393 186.384 66.7996V88.2419H146.5V66.7996C146.5 66.2393 146.274 65.9658 145.814 65.9658H140.968C140.507 65.9658 140.276 66.2393 140.276 66.7996V118.245C140.276 118.745 140.507 119 140.968 119H145.814C146.274 119 146.5 118.745 146.5 118.245V95.2053H186.384V118.245C186.384 118.745 186.586 119 186.999 119H191.915Z" stroke="#D9D9D9" stroke-width="2" mask="url(#path-1-outside-1_4215_15071)"/>
<mask id="path-2-outside-2_4215_15071" maskUnits="userSpaceOnUse" x="197.754" y="64.9658" width="45" height="56" fill="black">
<rect fill="white" x="197.754" y="64.9658" width="45" height="56"/>
<path fill-rule="evenodd" clip-rule="evenodd" d="M240.483 119C240.898 119 241.099 118.745 241.099 118.245V112.877C241.099 112.382 240.898 112.129 240.483 112.129H204.983V95.2053H239.33C239.744 95.2053 239.945 94.9252 239.945 94.3716V89.089C239.945 88.5354 239.744 88.2419 239.33 88.2419H204.983V72.9159H240.483C240.898 72.9159 241.099 72.6358 241.099 72.0755V66.7996C241.099 66.2393 240.898 65.9658 240.483 65.9658H199.452C198.984 65.9658 198.754 66.2393 198.754 66.7996V118.245C198.754 118.745 198.984 119 199.452 119H240.483Z"/>
</mask>
<path fill-rule="evenodd" clip-rule="evenodd" d="M240.483 119C240.898 119 241.099 118.745 241.099 118.245V112.877C241.099 112.382 240.898 112.129 240.483 112.129H204.983V95.2053H239.33C239.744 95.2053 239.945 94.9252 239.945 94.3716V89.089C239.945 88.5354 239.744 88.2419 239.33 88.2419H204.983V72.9159H240.483C240.898 72.9159 241.099 72.6358 241.099 72.0755V66.7996C241.099 66.2393 240.898 65.9658 240.483 65.9658H199.452C198.984 65.9658 198.754 66.2393 198.754 66.7996V118.245C198.754 118.745 198.984 119 199.452 119H240.483Z" fill="#D9D9D9"/>
<path fill-rule="evenodd" clip-rule="evenodd" d="M240.483 119C240.898 119 241.099 118.745 241.099 118.245V112.877C241.099 112.382 240.898 112.129 240.483 112.129H204.983V95.2053H239.33C239.744 95.2053 239.945 94.9252 239.945 94.3716V89.089C239.945 88.5354 239.744 88.2419 239.33 88.2419H204.983V72.9159H240.483C240.898 72.9159 241.099 72.6358 241.099 72.0755V66.7996C241.099 66.2393 240.898 65.9658 240.483 65.9658H199.452C198.984 65.9658 198.754 66.2393 198.754 66.7996V118.245C198.754 118.745 198.984 119 199.452 119H240.483Z" stroke="#D9D9D9" stroke-width="2" mask="url(#path-2-outside-2_4215_15071)"/>
<mask id="path-3-outside-3_4215_15071" maskUnits="userSpaceOnUse" x="243.79" y="64.9658" width="43" height="56" fill="black">
<rect fill="white" x="243.79" y="64.9658" width="43" height="56"/>
<path fill-rule="evenodd" clip-rule="evenodd" d="M284.899 119C285.36 119 285.592 118.745 285.592 118.245V112.877C285.592 112.382 285.36 112.129 284.899 112.129H251.013V66.7996C251.013 66.2393 250.783 65.9658 250.321 65.9658H245.476C245.016 65.9658 244.79 66.2393 244.79 66.7996V118.245C244.79 118.745 245.016 119 245.476 119H284.899Z"/>
</mask>
<path fill-rule="evenodd" clip-rule="evenodd" d="M284.899 119C285.36 119 285.592 118.745 285.592 118.245V112.877C285.592 112.382 285.36 112.129 284.899 112.129H251.013V66.7996C251.013 66.2393 250.783 65.9658 250.321 65.9658H245.476C245.016 65.9658 244.79 66.2393 244.79 66.7996V118.245C244.79 118.745 245.016 119 245.476 119H284.899Z" fill="#D9D9D9"/>
<path fill-rule="evenodd" clip-rule="evenodd" d="M284.899 119C285.36 119 285.592 118.745 285.592 118.245V112.877C285.592 112.382 285.36 112.129 284.899 112.129H251.013V66.7996C251.013 66.2393 250.783 65.9658 250.321 65.9658H245.476C245.016 65.9658 244.79 66.2393 244.79 66.7996V118.245C244.79 118.745 245.016 119 245.476 119H284.899Z" stroke="#D9D9D9" stroke-width="2" mask="url(#path-3-outside-3_4215_15071)"/>
<mask id="path-4-outside-4_4215_15071" maskUnits="userSpaceOnUse" x="286.899" y="64.9658" width="52" height="56" fill="black">
<rect fill="white" x="286.899" y="64.9658" width="52" height="56"/>
<path fill-rule="evenodd" clip-rule="evenodd" d="M337 82.9726C337 79.8461 336.669 77.1881 336.007 75.007C335.337 72.7725 334.415 71.0133 333.237 69.731C332.007 68.4404 330.344 67.4966 328.239 66.8779C326.145 66.2726 323.659 65.9658 320.785 65.9658H288.591C288.129 65.9658 287.899 66.2393 287.899 66.7996V118.245C287.899 118.745 288.129 119 288.591 119H293.737C294.246 119 294.506 118.745 294.506 118.245V96.8728H320.785C331.598 96.8728 337 92.2355 337 82.9726ZM330.474 82.7191C330.474 84.1648 330.238 85.4288 329.776 86.491C329.322 87.5582 328.569 88.3603 327.553 88.9205V88.8355C326.067 89.5575 323.737 89.9227 320.559 89.9227H294.506V72.9159H320.559C322.198 72.9159 323.578 73.026 324.707 73.2544C325.831 73.4179 326.784 73.698 327.553 74.0882C328.569 74.6418 329.322 75.4305 329.776 76.4327C330.238 77.4365 330.474 78.6738 330.474 80.1262V82.7191Z"/>
</mask>
<path fill-rule="evenodd" clip-rule="evenodd" d="M337 82.9726C337 79.8461 336.669 77.1881 336.007 75.007C335.337 72.7725 334.415 71.0133 333.237 69.731C332.007 68.4404 330.344 67.4966 328.239 66.8779C326.145 66.2726 323.659 65.9658 320.785 65.9658H288.591C288.129 65.9658 287.899 66.2393 287.899 66.7996V118.245C287.899 118.745 288.129 119 288.591 119H293.737C294.246 119 294.506 118.745 294.506 118.245V96.8728H320.785C331.598 96.8728 337 92.2355 337 82.9726ZM330.474 82.7191C330.474 84.1648 330.238 85.4288 329.776 86.491C329.322 87.5582 328.569 88.3603 327.553 88.9205V88.8355C326.067 89.5575 323.737 89.9227 320.559 89.9227H294.506V72.9159H320.559C322.198 72.9159 323.578 73.026 324.707 73.2544C325.831 73.4179 326.784 73.698 327.553 74.0882C328.569 74.6418 329.322 75.4305 329.776 76.4327C330.238 77.4365 330.474 78.6738 330.474 80.1262V82.7191Z" fill="#D9D9D9"/>
<path fill-rule="evenodd" clip-rule="evenodd" d="M337 82.9726C337 79.8461 336.669 77.1881 336.007 75.007C335.337 72.7725 334.415 71.0133 333.237 69.731C332.007 68.4404 330.344 67.4966 328.239 66.8779C326.145 66.2726 323.659 65.9658 320.785 65.9658H288.591C288.129 65.9658 287.899 66.2393 287.899 66.7996V118.245C287.899 118.745 288.129 119 288.591 119H293.737C294.246 119 294.506 118.745 294.506 118.245V96.8728H320.785C331.598 96.8728 337 92.2355 337 82.9726ZM330.474 82.7191C330.474 84.1648 330.238 85.4288 329.776 86.491C329.322 87.5582 328.569 88.3603 327.553 88.9205V88.8355C326.067 89.5575 323.737 89.9227 320.559 89.9227H294.506V72.9159H320.559C322.198 72.9159 323.578 73.026 324.707 73.2544C325.831 73.4179 326.784 73.698 327.553 74.0882C328.569 74.6418 329.322 75.4305 329.776 76.4327C330.238 77.4365 330.474 78.6738 330.474 80.1262V82.7191Z" stroke="#D9D9D9" stroke-width="2" mask="url(#path-4-outside-4_4215_15071)"/>
<mask id="path-5-outside-5_4215_15071" maskUnits="userSpaceOnUse" x="-1" y="-0.650391" width="62" height="61" fill="black">
<rect fill="white" x="-1" y="-0.650391" width="62" height="61"/>
<path fill-rule="evenodd" clip-rule="evenodd" d="M28.976 1.10187L0.15463 56.5911C-0.283044 57.4381 0.260637 58.4987 1.12993 58.4987L35.5835 58.6171C36.4604 58.6237 37.0101 57.5682 36.5724 56.7145L32.2366 48.2603C31.6263 47.0813 30.5086 46.351 29.2955 46.351L15.7488 46.306L29.2834 20.2447L34.2538 29.9428L34.2584 29.9378L48.0958 56.8979C48.6577 57.9917 49.6996 58.6688 50.8294 58.6688L58.7439 58.6954C59.6556 58.7021 60.2356 57.5999 59.7798 56.7011L31.3006 1.10685C30.7918 0.0980196 29.497 0.0980351 28.976 1.10187Z"/>
</mask>
<path fill-rule="evenodd" clip-rule="evenodd" d="M28.976 1.10187L0.15463 56.5911C-0.283044 57.4381 0.260637 58.4987 1.12993 58.4987L35.5835 58.6171C36.4604 58.6237 37.0101 57.5682 36.5724 56.7145L32.2366 48.2603C31.6263 47.0813 30.5086 46.351 29.2955 46.351L15.7488 46.306L29.2834 20.2447L34.2538 29.9428L34.2584 29.9378L48.0958 56.8979C48.6577 57.9917 49.6996 58.6688 50.8294 58.6688L58.7439 58.6954C59.6556 58.7021 60.2356 57.5999 59.7798 56.7011L31.3006 1.10685C30.7918 0.0980196 29.497 0.0980351 28.976 1.10187Z" fill="#618DFE" fill-opacity="0.94403"/>
<path fill-rule="evenodd" clip-rule="evenodd" d="M28.976 1.10187L0.15463 56.5911C-0.283044 57.4381 0.260637 58.4987 1.12993 58.4987L35.5835 58.6171C36.4604 58.6237 37.0101 57.5682 36.5724 56.7145L32.2366 48.2603C31.6263 47.0813 30.5086 46.351 29.2955 46.351L15.7488 46.306L29.2834 20.2447L34.2538 29.9428L34.2584 29.9378L48.0958 56.8979C48.6577 57.9917 49.6996 58.6688 50.8294 58.6688L58.7439 58.6954C59.6556 58.7021 60.2356 57.5999 59.7798 56.7011L31.3006 1.10685C30.7918 0.0980196 29.497 0.0980351 28.976 1.10187Z" stroke="#618DFE" stroke-width="2" mask="url(#path-5-outside-5_4215_15071)"/>
<mask id="path-6-outside-6_4215_15071" maskUnits="userSpaceOnUse" x="194.615" y="-0.536133" width="63" height="61" fill="black">
<rect fill="white" x="194.615" y="-0.536133" width="63" height="61"/>
<path fill-rule="evenodd" clip-rule="evenodd" d="M224.913 1.21259L195.772 56.7085C195.328 57.5556 195.878 58.6177 196.76 58.6177L231.592 58.7345C232.479 58.7345 233.035 57.679 232.591 56.8319L228.209 48.3777C227.594 47.1988 226.464 46.47 225.239 46.47L211.538 46.4234L225.227 20.3554L230.25 30.0619L230.255 30.0552L244.246 57.0153C244.814 58.1092 245.867 58.7795 247.003 58.7862L255.013 58.8128C255.935 58.8128 256.515 57.7123 256.061 56.8202L227.268 1.22593C226.747 0.215425 225.44 0.208763 224.913 1.21259Z"/>
</mask>
<path fill-rule="evenodd" clip-rule="evenodd" d="M224.913 1.21259L195.772 56.7085C195.328 57.5556 195.878 58.6177 196.76 58.6177L231.592 58.7345C232.479 58.7345 233.035 57.679 232.591 56.8319L228.209 48.3777C227.594 47.1988 226.464 46.47 225.239 46.47L211.538 46.4234L225.227 20.3554L230.25 30.0619L230.255 30.0552L244.246 57.0153C244.814 58.1092 245.867 58.7795 247.003 58.7862L255.013 58.8128C255.935 58.8128 256.515 57.7123 256.061 56.8202L227.268 1.22593C226.747 0.215425 225.44 0.208763 224.913 1.21259Z" fill="#618DFE" fill-opacity="0.94403"/>
<path fill-rule="evenodd" clip-rule="evenodd" d="M224.913 1.21259L195.772 56.7085C195.328 57.5556 195.878 58.6177 196.76 58.6177L231.592 58.7345C232.479 58.7345 233.035 57.679 232.591 56.8319L228.209 48.3777C227.594 47.1988 226.464 46.47 225.239 46.47L211.538 46.4234L225.227 20.3554L230.25 30.0619L230.255 30.0552L244.246 57.0153C244.814 58.1092 245.867 58.7795 247.003 58.7862L255.013 58.8128C255.935 58.8128 256.515 57.7123 256.061 56.8202L227.268 1.22593C226.747 0.215425 225.44 0.208763 224.913 1.21259Z" stroke="#618DFE" stroke-width="2" mask="url(#path-6-outside-6_4215_15071)"/>
<mask id="path-7-outside-7_4215_15071" maskUnits="userSpaceOnUse" x="73.4624" y="-0.59668" width="62" height="61" fill="black">
<rect fill="white" x="73.4624" y="-0.59668" width="62" height="61"/>
<path fill-rule="evenodd" clip-rule="evenodd" d="M103.438 1.15536L74.617 56.6446C74.1794 57.4917 74.723 58.5538 75.5923 58.5538L110.046 58.6706C110.923 58.6773 111.473 57.6151 111.035 56.768L106.699 48.3138C106.089 47.1349 104.971 46.4061 103.758 46.4061L90.2112 46.3595L103.746 20.2982L108.716 29.998L108.721 29.9913L122.558 56.9514C123.12 58.0453 124.162 58.7223 125.292 58.7223L133.206 58.749C134.124 58.7556 134.698 57.6551 134.242 56.7563L105.769 1.16203C105.254 0.151529 103.959 0.151533 103.438 1.15536Z"/>
</mask>
<path fill-rule="evenodd" clip-rule="evenodd" d="M103.438 1.15536L74.617 56.6446C74.1794 57.4917 74.723 58.5538 75.5923 58.5538L110.046 58.6706C110.923 58.6773 111.473 57.6151 111.035 56.768L106.699 48.3138C106.089 47.1349 104.971 46.4061 103.758 46.4061L90.2112 46.3595L103.746 20.2982L108.716 29.998L108.721 29.9913L122.558 56.9514C123.12 58.0453 124.162 58.7223 125.292 58.7223L133.206 58.749C134.124 58.7556 134.698 57.6551 134.242 56.7563L105.769 1.16203C105.254 0.151529 103.959 0.151533 103.438 1.15536Z" fill="#618DFE" fill-opacity="0.94403"/>
<path fill-rule="evenodd" clip-rule="evenodd" d="M103.438 1.15536L74.617 56.6446C74.1794 57.4917 74.723 58.5538 75.5923 58.5538L110.046 58.6706C110.923 58.6773 111.473 57.6151 111.035 56.768L106.699 48.3138C106.089 47.1349 104.971 46.4061 103.758 46.4061L90.2112 46.3595L103.746 20.2982L108.716 29.998L108.721 29.9913L122.558 56.9514C123.12 58.0453 124.162 58.7223 125.292 58.7223L133.206 58.749C134.124 58.7556 134.698 57.6551 134.242 56.7563L105.769 1.16203C105.254 0.151529 103.959 0.151533 103.438 1.15536Z" stroke="#618DFE" stroke-width="2" mask="url(#path-7-outside-7_4215_15071)"/>
<mask id="path-8-outside-8_4215_15071" maskUnits="userSpaceOnUse" x="145.28" y="-0.992188" width="50" height="61" fill="black">
<rect fill="white" x="145.28" y="-0.992188" width="50" height="61"/>
<path fill-rule="evenodd" clip-rule="evenodd" d="M179.107 0.0078125C178.539 0.0078125 177.984 0.204574 177.522 0.568088L150.742 21.4968H146.28V32.082H150.972L178.397 58.13C178.818 58.5268 179.35 58.742 179.899 58.742H193.092C193.442 58.7486 193.601 58.2667 193.335 58.0116L159.857 26.5059L192.808 0.751514C193.11 0.523067 192.961 0.0078125 192.595 0.0078125H179.107Z"/>
</mask>
<path fill-rule="evenodd" clip-rule="evenodd" d="M179.107 0.0078125C178.539 0.0078125 177.984 0.204574 177.522 0.568088L150.742 21.4968H146.28V32.082H150.972L178.397 58.13C178.818 58.5268 179.35 58.742 179.899 58.742H193.092C193.442 58.7486 193.601 58.2667 193.335 58.0116L159.857 26.5059L192.808 0.751514C193.11 0.523067 192.961 0.0078125 192.595 0.0078125H179.107Z" fill="#618DFE" fill-opacity="0.94403"/>
<path fill-rule="evenodd" clip-rule="evenodd" d="M179.107 0.0078125C178.539 0.0078125 177.984 0.204574 177.522 0.568088L150.742 21.4968H146.28V32.082H150.972L178.397 58.13C178.818 58.5268 179.35 58.742 179.899 58.742H193.092C193.442 58.7486 193.601 58.2667 193.335 58.0116L159.857 26.5059L192.808 0.751514C193.11 0.523067 192.961 0.0078125 192.595 0.0078125H179.107Z" stroke="#618DFE" stroke-width="2" mask="url(#path-8-outside-8_4215_15071)"/>
<mask id="path-9-outside-9_4215_15071" maskUnits="userSpaceOnUse" x="136.153" y="-0.992188" width="12" height="61" fill="black">
<rect fill="white" x="136.153" y="-0.992188" width="12" height="61"/>
<path fill-rule="evenodd" clip-rule="evenodd" d="M138.17 0.0078125C137.608 0.0078125 137.153 0.509723 137.153 1.12836V57.6214C137.153 58.24 137.608 58.742 138.17 58.742H145.895C146.144 58.742 146.382 58.5986 146.512 58.3634V0.751514C146.323 0.30129 145.914 0.0078125 145.458 0.0078125H138.17Z"/>
</mask>
<path fill-rule="evenodd" clip-rule="evenodd" d="M138.17 0.0078125C137.608 0.0078125 137.153 0.509723 137.153 1.12836V57.6214C137.153 58.24 137.608 58.742 138.17 58.742H145.895C146.144 58.742 146.382 58.5986 146.512 58.3634V0.751514C146.323 0.30129 145.914 0.0078125 145.458 0.0078125H138.17Z" fill="#618DFE" fill-opacity="0.94403"/>
<path fill-rule="evenodd" clip-rule="evenodd" d="M138.17 0.0078125C137.608 0.0078125 137.153 0.509723 137.153 1.12836V57.6214C137.153 58.24 137.608 58.742 138.17 58.742H145.895C146.144 58.742 146.382 58.5986 146.512 58.3634V0.751514C146.323 0.30129 145.914 0.0078125 145.458 0.0078125H138.17Z" stroke="#618DFE" stroke-width="2" mask="url(#path-9-outside-9_4215_15071)"/>
<mask id="path-10-outside-10_4215_15071" maskUnits="userSpaceOnUse" x="38.2876" y="-1" width="58" height="61" fill="black">
<rect fill="white" x="38.2876" y="-1" width="58" height="61"/>
<path fill-rule="evenodd" clip-rule="evenodd" d="M40.269 0C39.7253 0 39.2876 0.481909 39.2876 1.08221V10.09C39.2876 10.5986 39.6662 11.0155 40.1266 11.0155H62.3526V57.4702C62.3526 58.0705 62.7963 58.5524 63.3354 58.5524H71.0197C71.5573 58.5524 71.995 58.0638 71.995 57.4702V11.0155H94.1332C94.695 11.0155 95.1509 10.5136 95.1509 9.89492V0.95883C95.1509 0.430234 94.7601 0 94.274 0H40.269Z"/>
</mask>
<path fill-rule="evenodd" clip-rule="evenodd" d="M40.269 0C39.7253 0 39.2876 0.481909 39.2876 1.08221V10.09C39.2876 10.5986 39.6662 11.0155 40.1266 11.0155H62.3526V57.4702C62.3526 58.0705 62.7963 58.5524 63.3354 58.5524H71.0197C71.5573 58.5524 71.995 58.0638 71.995 57.4702V11.0155H94.1332C94.695 11.0155 95.1509 10.5136 95.1509 9.89492V0.95883C95.1509 0.430234 94.7601 0 94.274 0H40.269Z" fill="#618DFE"/>
<path fill-rule="evenodd" clip-rule="evenodd" d="M40.269 0C39.7253 0 39.2876 0.481909 39.2876 1.08221V10.09C39.2876 10.5986 39.6662 11.0155 40.1266 11.0155H62.3526V57.4702C62.3526 58.0705 62.7963 58.5524 63.3354 58.5524H71.0197C71.5573 58.5524 71.995 58.0638 71.995 57.4702V11.0155H94.1332C94.695 11.0155 95.1509 10.5136 95.1509 9.89492V0.95883C95.1509 0.430234 94.7601 0 94.274 0H40.269Z" stroke="#618DFE" stroke-width="2" mask="url(#path-10-outside-10_4215_15071)"/>
</g>
<defs>
<clipPath id="clip0_4215_15071">
<rect width="337" height="119" fill="white"/>
</clipPath>
</defs>
</svg>
