<svg width="24" height="25" viewBox="0 0 24 25" fill="none" xmlns="http://www.w3.org/2000/svg">
<g clip-path="url(#clip0_659_162)">
<path d="M11.9998 0.577148C5.39217 0.577148 0.0351562 5.93374 0.0351562 12.5423C0.0351562 19.1508 5.3926 24.5074 11.9998 24.5074C18.6075 24.5074 23.965 19.1508 23.965 12.5423C23.965 5.93374 18.6075 0.577148 11.9998 0.577148ZM18.8767 7.5134L11.9998 13.0145L5.12295 7.5134C5.20476 7.48955 18.7963 7.48955 18.8767 7.5134ZM4.52299 8.10054L9.43359 12.3057L4.52686 17.0172C4.49696 16.9253 4.49494 8.18686 4.523 8.10041L4.52299 8.10054ZM5.13434 17.5932L10.0888 13.1999L12.0001 14.7554L13.9146 13.1974L18.8674 17.5932C18.7882 17.6149 5.21292 17.6149 5.13464 17.5932L5.13434 17.5932ZM19.4722 17.0172L14.5685 12.3036L19.4778 8.1005C19.5055 8.18685 19.5045 16.9256 19.4724 17.0172H19.4722Z" fill="white"/>
</g>
<defs>
<clipPath id="clip0_659_162">
<rect width="24" height="24" fill="white" transform="translate(0 0.5)"/>
</clipPath>
</defs>
</svg>
