<svg width="33" height="33" viewBox="0 0 33 33" fill="none" xmlns="http://www.w3.org/2000/svg">
<path d="M16.5 0C7.38633 0 0 7.38633 0 16.5C0 25.6137 7.38633 33 16.5 33C25.6137 33 33 25.6137 33 16.5C33 7.38633 25.6137 0 16.5 0ZM11.8852 23.4029H8.66895V13.1098H11.8852V23.4029ZM10.19 11.8207H10.1643C8.99766 11.8207 8.24356 11.0344 8.24356 10.0354C8.24356 9.01699 9.02344 8.25 10.2094 8.25C11.3953 8.25 12.1236 9.01699 12.1494 10.0354C12.1559 11.0279 11.4018 11.8207 10.19 11.8207ZM24.75 23.4029H21.102V18.0791C21.102 16.6869 20.5348 15.733 19.2779 15.733C18.3176 15.733 17.7826 16.3775 17.5377 16.9963C17.4475 17.2154 17.4604 17.5248 17.4604 17.8406V23.4029H13.8445C13.8445 23.4029 13.8896 13.967 13.8445 13.1098H17.4604V14.7275C17.673 14.0186 18.8268 13.0131 20.6701 13.0131C22.9582 13.0131 24.75 14.4955 24.75 17.6795V23.4029Z" fill="white"/>
</svg>
