<svg width="24" height="25" viewBox="0 0 24 25" fill="none" xmlns="http://www.w3.org/2000/svg">
<g clip-path="url(#clip0_659_157)">
<path fill-rule="evenodd" clip-rule="evenodd" d="M12.0438 0.769043C18.4728 0.769043 23.757 6.05323 23.757 12.5702C23.757 18.9992 18.4728 24.2834 12.0438 24.2834C5.52633 24.2834 0.242676 18.9992 0.242676 12.5702C0.242676 6.0527 5.52686 0.769043 12.0438 0.769043ZM4.73397 7.90243C5.08624 5.96493 6.67147 5.26039 7.19989 5.26039C7.7283 5.17222 8.16874 4.99608 8.69716 6.22924C9.22558 7.55039 9.84214 9.22358 9.84214 9.22358C9.84214 9.22358 9.93031 9.57585 9.57783 10.0163C9.22555 10.3686 8.60897 11.0731 8.60897 11.0731C8.60897 11.0731 8.43283 11.3375 8.60897 11.6016C9.31351 12.9227 11.6033 15.3004 12.9244 15.917C13.1887 16.0931 13.541 15.917 13.541 15.917C13.541 15.917 14.1575 15.3004 14.5978 14.9481C14.9501 14.6838 15.3023 14.772 15.3023 14.772C15.3023 14.772 17.0637 15.3886 18.2967 15.917C19.6178 16.4454 19.3535 16.7976 19.3535 17.3261C19.2653 17.8545 18.649 19.5279 16.6233 19.792C11.8674 20.6726 3.94124 12.6586 4.73361 7.90231L4.73397 7.90243Z" fill="white"/>
</g>
<defs>
<clipPath id="clip0_659_157">
<rect width="24" height="24" fill="white" transform="translate(0 0.5)"/>
</clipPath>
</defs>
</svg>
