<svg width="24" height="24" viewBox="0 0 24 24" fill="none" xmlns="http://www.w3.org/2000/svg">
<path d="M2.57227 5.99972C2.57227 5.52633 2.95603 5.14258 3.42941 5.14258H20.5723C21.0457 5.14258 21.4294 5.52633 21.4294 5.99972C21.4294 6.47311 21.0457 6.85686 20.5723 6.85686H3.42941C2.95603 6.85686 2.57227 6.47311 2.57227 5.99972Z" fill="#618DFE"/>
<path d="M2.57227 11.9499C2.57227 11.4765 2.95603 11.0928 3.42941 11.0928H20.5723C21.0457 11.0928 21.4294 11.4765 21.4294 11.9499C21.4294 12.4233 21.0457 12.8071 20.5723 12.8071H3.42941C2.95603 12.8071 2.57227 12.4233 2.57227 11.9499Z" fill="#618DFE"/>
<path d="M3.42941 17.042C2.95603 17.042 2.57227 17.4257 2.57227 17.8991C2.57227 18.3725 2.95603 18.7563 3.42941 18.7563H20.5723C21.0457 18.7563 21.4294 18.3725 21.4294 17.8991C21.4294 17.4257 21.0457 17.042 20.5723 17.042H3.42941Z" fill="#618DFE"/>
</svg>
