<svg width="24" height="25" viewBox="0 0 24 25" fill="none" xmlns="http://www.w3.org/2000/svg">
<g clip-path="url(#clip0_2364_2356)">
<path d="M11.9852 0.577148C5.37752 0.577148 0.0205078 5.93374 0.0205078 12.5423C0.0205078 19.1508 5.37795 24.5074 11.9852 24.5074C18.5929 24.5074 23.9503 19.1508 23.9503 12.5423C23.9503 5.93374 18.5929 0.577148 11.9852 0.577148ZM18.8621 7.5134L11.9852 13.0145L5.1083 7.5134C5.19011 7.48955 18.7817 7.48955 18.8621 7.5134ZM4.50834 8.10054L9.41894 12.3057L4.51221 17.0172C4.48231 16.9253 4.48029 8.18686 4.50835 8.10041L4.50834 8.10054ZM5.11969 17.5932L10.0742 13.1999L11.9855 14.7554L13.9 13.1974L18.8527 17.5932C18.7736 17.6149 5.19827 17.6149 5.12 17.5932L5.11969 17.5932ZM19.4575 17.0172L14.5538 12.3036L19.4631 8.1005C19.4909 8.18685 19.4898 16.9256 19.4578 17.0172H19.4575Z" fill="white"/>
</g>
<defs>
<clipPath id="clip0_2364_2356">
<rect width="24" height="24" fill="white" transform="translate(0 0.5)"/>
</clipPath>
</defs>
</svg>
