<svg width="24" height="24" viewBox="0 0 24 24" fill="none" xmlns="http://www.w3.org/2000/svg">
<path d="M9.1419 21.5854C7.46635 21.0866 5.9749 20.1604 4.79393 18.9333C5.2345 18.4111 5.5 17.7365 5.5 16.9998C5.5 15.343 4.15686 13.9998 2.5 13.9998C2.39977 13.9998 2.3007 14.0048 2.203 14.0144C2.0699 13.3636 2 12.6899 2 11.9998C2 10.9545 2.16039 9.94666 2.4579 8.99951C2.47191 8.99971 2.48594 8.99981 2.5 8.99981C4.15686 8.99981 5.5 7.65666 5.5 5.99981C5.5 5.52416 5.3893 5.07441 5.1923 4.67481C6.34875 3.59951 7.76025 2.79477 9.32605 2.36133C9.8222 3.33385 10.8334 3.99982 12 3.99982C13.1666 3.99982 14.1778 3.33385 14.674 2.36133C16.2397 2.79477 17.6512 3.59951 18.8077 4.67481C18.6107 5.07441 18.5 5.52416 18.5 5.99981C18.5 7.65666 19.8431 8.99981 21.5 8.99981C21.514 8.99981 21.5281 8.99971 21.5421 8.99951C21.8396 9.94666 22 10.9545 22 11.9998C22 12.6899 21.9301 13.3636 21.797 14.0144C21.6993 14.0048 21.6003 13.9998 21.5 13.9998C19.8431 13.9998 18.5 15.343 18.5 16.9998C18.5 17.7365 18.7655 18.4111 19.2061 18.9333C18.0251 20.1604 16.5336 21.0866 14.8581 21.5854C14.4714 20.3758 13.338 19.4998 12 19.4998C10.662 19.4998 9.5286 20.3758 9.1419 21.5854Z" fill="#2F88FF"/>
<path fill-rule="evenodd" clip-rule="evenodd" d="M9.05927 1.39769C9.51711 1.27095 10.0009 1.48383 10.2168 1.907C10.5488 2.55781 11.2237 2.99994 12 2.99994C12.7763 2.99994 13.4512 2.55781 13.7832 1.907C13.9991 1.48383 14.4829 1.27095 14.9407 1.39769C16.6647 1.87491 18.2174 2.76058 19.4886 3.9426C19.8122 4.24342 19.9 4.72088 19.7046 5.11711C19.5739 5.38226 19.5 5.68104 19.5 5.99993C19.5 7.10449 20.3954 7.99993 21.5 7.99993L21.5278 7.99973C21.9699 7.99341 22.3637 8.27815 22.4961 8.69996C22.8237 9.74294 23 10.8518 23 11.9999C23 12.7577 22.9232 13.4986 22.7767 14.2149C22.6741 14.7166 22.2089 15.0598 21.6992 15.0097C21.6337 15.0032 21.5673 14.9999 21.5 14.9999C20.3954 14.9999 19.5 15.8954 19.5 16.9999C19.5 17.4919 19.6763 17.94 19.9704 18.2885C20.3006 18.68 20.2818 19.2577 19.9266 19.6268C18.6286 20.9756 16.9882 21.9947 15.1434 22.544C14.6216 22.6993 14.0714 22.4086 13.9056 21.89C13.6475 21.0826 12.8905 20.4999 12 20.4999C11.1095 20.4999 10.3525 21.0826 10.0944 21.89C9.92862 22.4086 9.37839 22.6993 8.85655 22.544C7.01182 21.9947 5.37142 20.9756 4.0734 19.6268C3.71823 19.2577 3.69934 18.68 4.02964 18.2885C4.32369 17.94 4.5 17.4919 4.5 16.9999C4.5 15.8954 3.60457 14.9999 2.5 14.9999C2.43273 14.9999 2.36629 15.0032 2.30078 15.0097C1.79107 15.0598 1.32591 14.7166 1.22328 14.2149C1.07677 13.4986 1 12.7577 1 11.9999C1 10.8518 1.17624 9.74295 1.50385 8.69995C1.63635 8.27815 2.0301 7.99342 2.47217 7.99973L2.5 7.99993C3.60457 7.99993 4.5 7.10449 4.5 5.99993C4.5 5.68104 4.42609 5.38227 4.29538 5.11711C4.10003 4.72088 4.18783 4.24342 4.51135 3.9426C5.78256 2.76058 7.33529 1.87491 9.05927 1.39769ZM6.36833 4.97921C6.45428 5.3056 6.5 5.64785 6.5 5.99993C6.5 7.95676 5.09485 9.5854 3.2385 9.93189C3.08262 10.5951 3 11.2873 3 11.9999C3 12.3516 3.02012 12.6982 3.0592 13.0387C5.00361 13.3107 6.5 14.9806 6.5 16.9999C6.5 17.6392 6.3495 18.2444 6.08229 18.781C6.8323 19.4362 7.69143 19.9685 8.62832 20.3473C9.3386 19.2369 10.5824 18.4999 12 18.4999C13.4176 18.4999 14.6614 19.2369 15.3717 20.3473C16.3086 19.9685 17.1677 19.4362 17.9177 18.781C17.6505 18.2444 17.5 17.6392 17.5 16.9999C17.5 14.9806 18.9964 13.3107 20.9408 13.0387C20.9799 12.6982 21 12.3516 21 11.9999C21 11.2873 20.9174 10.5951 20.7615 9.93189C18.9052 9.5854 17.5 7.95675 17.5 5.99993C17.5 5.64785 17.5457 5.3056 17.6317 4.97921C16.8739 4.37051 16.0161 3.88234 15.0873 3.54315C14.3545 4.4318 13.2441 4.99994 12 4.99994C10.7559 4.99994 9.64553 4.4318 8.91267 3.54315C7.98386 3.88234 7.12606 4.37051 6.36833 4.97921Z" fill="#DCF0FF"/>
<path fill-rule="evenodd" clip-rule="evenodd" d="M9.05927 1.39769C9.51711 1.27095 10.0009 1.48383 10.2168 1.907C10.5488 2.55781 11.2237 2.99994 12 2.99994C12.7763 2.99994 13.4512 2.55781 13.7832 1.907C13.9991 1.48383 14.4829 1.27095 14.9407 1.39769C16.6647 1.87491 18.2174 2.76058 19.4886 3.9426C19.8122 4.24342 19.9 4.72088 19.7046 5.11711C19.5739 5.38226 19.5 5.68104 19.5 5.99993C19.5 7.10449 20.3954 7.99993 21.5 7.99993L21.5278 7.99973C21.9699 7.99341 22.3637 8.27815 22.4961 8.69996C22.8237 9.74294 23 10.8518 23 11.9999C23 12.7577 22.9232 13.4986 22.7767 14.2149C22.6741 14.7166 22.2089 15.0598 21.6992 15.0097C21.6337 15.0032 21.5673 14.9999 21.5 14.9999C20.3954 14.9999 19.5 15.8954 19.5 16.9999C19.5 17.4919 19.6763 17.94 19.9704 18.2885C20.3006 18.68 20.2818 19.2577 19.9266 19.6268C18.6286 20.9756 16.9882 21.9947 15.1434 22.544C14.6216 22.6993 14.0714 22.4086 13.9056 21.89C13.6475 21.0826 12.8905 20.4999 12 20.4999C11.1095 20.4999 10.3525 21.0826 10.0944 21.89C9.92862 22.4086 9.37839 22.6993 8.85655 22.544C7.01182 21.9947 5.37142 20.9756 4.0734 19.6268C3.71823 19.2577 3.69934 18.68 4.02964 18.2885C4.32369 17.94 4.5 17.4919 4.5 16.9999C4.5 15.8954 3.60457 14.9999 2.5 14.9999C2.43273 14.9999 2.36629 15.0032 2.30078 15.0097C1.79107 15.0598 1.32591 14.7166 1.22328 14.2149C1.07677 13.4986 1 12.7577 1 11.9999C1 10.8518 1.17624 9.74295 1.50385 8.69995C1.63635 8.27815 2.0301 7.99342 2.47217 7.99973L2.5 7.99993C3.60457 7.99993 4.5 7.10449 4.5 5.99993C4.5 5.68104 4.42609 5.38227 4.29538 5.11711C4.10003 4.72088 4.18783 4.24342 4.51135 3.9426C5.78256 2.76058 7.33529 1.87491 9.05927 1.39769ZM6.36833 4.97921C6.45428 5.3056 6.5 5.64785 6.5 5.99993C6.5 7.95676 5.09485 9.5854 3.2385 9.93189C3.08262 10.5951 3 11.2873 3 11.9999C3 12.3516 3.02012 12.6982 3.0592 13.0387C5.00361 13.3107 6.5 14.9806 6.5 16.9999C6.5 17.6392 6.3495 18.2444 6.08229 18.781C6.8323 19.4362 7.69143 19.9685 8.62832 20.3473C9.3386 19.2369 10.5824 18.4999 12 18.4999C13.4176 18.4999 14.6614 19.2369 15.3717 20.3473C16.3086 19.9685 17.1677 19.4362 17.9177 18.781C17.6505 18.2444 17.5 17.6392 17.5 16.9999C17.5 14.9806 18.9964 13.3107 20.9408 13.0387C20.9799 12.6982 21 12.3516 21 11.9999C21 11.2873 20.9174 10.5951 20.7615 9.93189C18.9052 9.5854 17.5 7.95675 17.5 5.99993C17.5 5.64785 17.5457 5.3056 17.6317 4.97921C16.8739 4.37051 16.0161 3.88234 15.0873 3.54315C14.3545 4.4318 13.2441 4.99994 12 4.99994C10.7559 4.99994 9.64553 4.4318 8.91267 3.54315C7.98386 3.88234 7.12606 4.37051 6.36833 4.97921Z" fill="#2F88FF" fill-opacity="0.85"/>
<path d="M12 15.5C13.933 15.5 15.5 13.933 15.5 12C15.5 10.067 13.933 8.5 12 8.5C10.067 8.5 8.5 10.067 8.5 12C8.5 13.933 10.067 15.5 12 15.5Z" fill="#2F88FF"/>
<path fill-rule="evenodd" clip-rule="evenodd" d="M7.5 12C7.5 9.51472 9.51472 7.5 12 7.5C14.4853 7.5 16.5 9.51472 16.5 12C16.5 14.4853 14.4853 16.5 12 16.5C9.51472 16.5 7.5 14.4853 7.5 12ZM12 9.5C10.6193 9.5 9.5 10.6193 9.5 12C9.5 13.3807 10.6193 14.5 12 14.5C13.3807 14.5 14.5 13.3807 14.5 12C14.5 10.6193 13.3807 9.5 12 9.5Z" fill="#DCF0FF"/>
</svg>
