<svg width="35" height="35" viewBox="0 0 35 35" fill="none" xmlns="http://www.w3.org/2000/svg">
<path d="M16.5 1C7.38633 1 0 8.38633 0 17.5C0 26.6137 7.38633 34 16.5 34C25.6137 34 33 26.6137 33 17.5C33 8.38633 25.6137 1 16.5 1ZM11.8852 24.4029H8.66895V14.1098H11.8852V24.4029ZM10.19 12.8207H10.1643C8.99766 12.8207 8.24356 12.0344 8.24356 11.0354C8.24356 10.017 9.02344 9.25 10.2094 9.25C11.3953 9.25 12.1236 10.017 12.1494 11.0354C12.1559 12.0279 11.4018 12.8207 10.19 12.8207ZM24.75 24.4029H21.102V19.0791C21.102 17.6869 20.5348 16.733 19.2779 16.733C18.3176 16.733 17.7826 17.3775 17.5377 17.9963C17.4475 18.2154 17.4604 18.5248 17.4604 18.8406V24.4029H13.8445C13.8445 24.4029 13.8896 14.967 13.8445 14.1098H17.4604V15.7275C17.673 15.0186 18.8268 14.0131 20.6701 14.0131C22.9582 14.0131 24.75 15.4955 24.75 18.6795V24.4029Z" fill="white"/>
</svg>
