<svg width="24" height="25" viewBox="0 0 24 25" fill="none" xmlns="http://www.w3.org/2000/svg">
<g clip-path="url(#clip0_2364_2351)">
<path fill-rule="evenodd" clip-rule="evenodd" d="M12.044 0.769043C18.473 0.769043 23.7571 6.05323 23.7571 12.5702C23.7571 18.9992 18.473 24.2834 12.044 24.2834C5.52646 24.2834 0.242798 18.9992 0.242798 12.5702C0.242798 6.0527 5.52698 0.769043 12.044 0.769043ZM4.73409 7.90243C5.08637 5.96493 6.67159 5.26039 7.20001 5.26039C7.72843 5.17222 8.16886 4.99608 8.69728 6.22924C9.2257 7.55039 9.84226 9.22358 9.84226 9.22358C9.84226 9.22358 9.93043 9.57585 9.57795 10.0163C9.22567 10.3686 8.60909 11.0731 8.60909 11.0731C8.60909 11.0731 8.43296 11.3375 8.60909 11.6016C9.31363 12.9227 11.6034 15.3004 12.9245 15.917C13.1888 16.0931 13.5411 15.917 13.5411 15.917C13.5411 15.917 14.1576 15.3004 14.5979 14.9481C14.9502 14.6838 15.3025 14.772 15.3025 14.772C15.3025 14.772 17.0638 15.3886 18.2968 15.917C19.6179 16.4454 19.3536 16.7976 19.3536 17.3261C19.2655 17.8545 18.6491 19.5279 16.6234 19.792C11.8675 20.6726 3.94136 12.6586 4.73373 7.90231L4.73409 7.90243Z" fill="white"/>
</g>
<defs>
<clipPath id="clip0_2364_2351">
<rect width="24" height="24" fill="white" transform="translate(0 0.5)"/>
</clipPath>
</defs>
</svg>
