<svg width="200" height="200" viewBox="0 0 200 200" fill="none" xmlns="http://www.w3.org/2000/svg">
<path d="M193.75 100C193.75 48.2233 151.777 6.25 100 6.25C48.2233 6.25 6.25 48.2233 6.25 100C6.25 151.777 48.2233 193.75 100 193.75C151.777 193.75 193.75 151.777 193.75 100Z" fill="#F7F9FB"/>
<path fill-rule="evenodd" clip-rule="evenodd" d="M97.5141 14.2728L25.387 145.041C24.2916 147.037 25.6523 149.536 27.8278 149.536L114.05 149.815C116.244 149.831 117.62 147.344 116.525 145.331L105.674 125.407C104.147 122.63 101.35 120.909 98.3138 120.909L64.4124 120.802L98.2835 59.3855L110.722 82.2405L110.734 82.2287L145.362 145.764C146.769 148.341 149.376 149.937 152.204 149.937L172.01 150C174.291 150.016 175.742 147.419 174.602 145.3L103.332 14.2845C102.058 11.9071 98.8179 11.9071 97.5141 14.2728Z" fill="#618DFE"/>
<path d="M193.75 100C193.75 48.2233 151.777 6.25 100 6.25C48.2233 6.25 6.25 48.2233 6.25 100C6.25 151.777 48.2233 193.75 100 193.75C151.777 193.75 193.75 151.777 193.75 100Z" stroke="#618DFE" stroke-width="3"/>
</svg>
