<svg width="15" height="15" viewBox="0 0 15 15" fill="none" xmlns="http://www.w3.org/2000/svg">
<path d="M7.50033 14.5846C6.53227 14.5846 5.61734 14.3987 4.75553 14.0268C3.89373 13.6549 3.14112 13.1473 2.49772 12.5039C1.85432 11.8605 1.34668 11.1079 0.974805 10.2461C0.60293 9.38429 0.416992 8.46936 0.416992 7.5013C0.416992 6.52144 0.60293 5.60356 0.974805 4.74766C1.34668 3.89175 1.85432 3.1421 2.49772 2.4987C3.14112 1.8553 3.89373 1.34766 4.75553 0.975781C5.61734 0.603906 6.53227 0.417969 7.50033 0.417969C8.48019 0.417969 9.39807 0.603906 10.254 0.975781C11.1099 1.34766 11.8595 1.8553 12.5029 2.4987C13.1463 3.1421 13.654 3.89175 14.0258 4.74766C14.3977 5.60356 14.5837 6.52144 14.5837 7.5013V8.52839C14.5837 9.22491 14.3446 9.81814 13.8665 10.3081C13.3883 10.798 12.801 11.043 12.1045 11.043C11.6795 11.043 11.284 10.9485 10.918 10.7596C10.5521 10.5707 10.251 10.3228 10.0149 10.0159C9.69616 10.3346 9.32133 10.5855 8.89043 10.7685C8.45953 10.9515 7.99616 11.043 7.50033 11.043C6.52046 11.043 5.68522 10.6977 4.9946 10.007C4.30397 9.31641 3.95866 8.48116 3.95866 7.5013C3.95866 6.52144 4.30397 5.6862 4.9946 4.99557C5.68522 4.30495 6.52046 3.95964 7.50033 3.95964C8.48019 3.95964 9.31543 4.30495 10.0061 4.99557C10.6967 5.6862 11.042 6.52144 11.042 7.5013V8.52839C11.042 8.87075 11.1482 9.13932 11.3607 9.33412C11.5732 9.52891 11.8212 9.6263 12.1045 9.6263C12.3878 9.6263 12.6357 9.52891 12.8482 9.33412C13.0607 9.13932 13.167 8.87075 13.167 8.52839V7.5013C13.167 5.95477 12.6092 4.6237 11.4936 3.50807C10.3779 2.39245 9.04685 1.83464 7.50033 1.83464C5.9538 1.83464 4.62272 2.39245 3.5071 3.50807C2.39147 4.6237 1.83366 5.95477 1.83366 7.5013C1.83366 9.04783 2.39147 10.3789 3.5071 11.4945C4.62272 12.6102 5.9538 13.168 7.50033 13.168H11.042V14.5846H7.50033ZM7.50033 9.6263C8.0906 9.6263 8.59234 9.41971 9.00553 9.00651C9.41873 8.59332 9.62533 8.09158 9.62533 7.5013C9.62533 6.91102 9.41873 6.40929 9.00553 5.99609C8.59234 5.5829 8.0906 5.3763 7.50033 5.3763C6.91005 5.3763 6.40831 5.5829 5.99512 5.99609C5.58192 6.40929 5.37533 6.91102 5.37533 7.5013C5.37533 8.09158 5.58192 8.59332 5.99512 9.00651C6.40831 9.41971 6.91005 9.6263 7.50033 9.6263Z" fill="white"/>
</svg>
