<svg width="18" height="18" viewBox="0 0 18 18" fill="none" xmlns="http://www.w3.org/2000/svg">
<path d="M9 7.125C7.96447 7.125 7.125 7.96447 7.125 9C7.125 10.0355 7.96447 10.875 9 10.875C10.0355 10.875 10.875 10.0355 10.875 9C10.875 7.96447 10.0355 7.125 9 7.125Z" fill="white"/>
<path fill-rule="evenodd" clip-rule="evenodd" d="M8.96229 0.875C7.43185 0.874993 6.23218 0.874988 5.2804 0.978107C4.30912 1.08334 3.52213 1.30194 2.8502 1.79013C2.44341 2.08568 2.08568 2.44341 1.79013 2.8502C1.30194 3.52213 1.08334 4.30912 0.978107 5.2804C0.874988 6.23218 0.874993 7.43185 0.875 8.96229V9.03771C0.874993 10.5682 0.874988 11.7678 0.978107 12.7196C1.08334 13.6909 1.30194 14.4779 1.79013 15.1498C2.08567 15.5566 2.44341 15.9143 2.8502 16.2099C3.52213 16.6981 4.30912 16.9167 5.2804 17.0219C6.23216 17.125 7.4318 17.125 8.96221 17.125H9.03773C10.5681 17.125 11.7678 17.125 12.7196 17.0219C13.6909 16.9167 14.4779 16.6981 15.1498 16.2099C15.5566 15.9143 15.9143 15.5566 16.2099 15.1498C16.6981 14.4779 16.9167 13.6909 17.0219 12.7196C17.125 11.7678 17.125 10.5682 17.125 9.03779V8.96227C17.125 7.43187 17.125 6.23216 17.0219 5.2804C16.9167 4.30912 16.6981 3.52213 16.2099 2.8502C15.9143 2.44341 15.5566 2.08567 15.1498 1.79013C14.4779 1.30194 13.6909 1.08334 12.7196 0.978107C11.7678 0.874988 10.5682 0.874993 9.03771 0.875H8.96229ZM5.875 9C5.875 7.27411 7.27411 5.875 9 5.875C10.7259 5.875 12.125 7.27411 12.125 9C12.125 10.7259 10.7259 12.125 9 12.125C7.27411 12.125 5.875 10.7259 5.875 9ZM13.1667 5.66667C12.7064 5.66667 12.3333 5.29357 12.3333 4.83333C12.3333 4.3731 12.7064 4 13.1667 4C13.6269 4 14 4.3731 14 4.83333C14 5.29357 13.6269 5.66667 13.1667 5.66667Z" fill="white"/>
</svg>
