<svg width="17" height="17" viewBox="0 0 17 17" fill="none" xmlns="http://www.w3.org/2000/svg">
<mask id="mask0_550_616" style="mask-type:alpha" maskUnits="userSpaceOnUse" x="0" y="0" width="17" height="17">
<rect width="17" height="17" fill="#D9D9D9"/>
</mask>
<g mask="url(#mask0_550_616)">
<path d="M14.1313 14.875C12.6083 14.875 11.1238 14.5356 9.6776 13.8568C8.23142 13.178 6.95052 12.2807 5.8349 11.1651C4.71927 10.0495 3.82205 8.76858 3.14323 7.3224C2.46441 5.87622 2.125 4.39167 2.125 2.86875C2.125 2.65625 2.19583 2.47917 2.3375 2.3375C2.47917 2.19583 2.65625 2.125 2.86875 2.125H5.7375C5.90278 2.125 6.05035 2.17813 6.18021 2.28437C6.31007 2.39062 6.38681 2.52639 6.41042 2.69167L6.87083 5.17083C6.89444 5.33611 6.89149 5.48663 6.86198 5.6224C6.83247 5.75816 6.76458 5.87917 6.65833 5.98542L4.94062 7.72083C5.43646 8.57083 6.0592 9.36771 6.80885 10.1115C7.55851 10.8552 8.38194 11.4986 9.27917 12.0417L10.9437 10.3771C11.05 10.2708 11.1887 10.1911 11.3599 10.138C11.5311 10.0849 11.6993 10.0701 11.8646 10.0938L14.3083 10.5896C14.4736 10.625 14.6094 10.7047 14.7156 10.8286C14.8219 10.9526 14.875 11.0972 14.875 11.2625V14.1313C14.875 14.3438 14.8042 14.5208 14.6625 14.6625C14.5208 14.8042 14.3438 14.875 14.1313 14.875ZM4.26771 6.375L5.43646 5.20625L5.13542 3.54167H3.55938C3.6184 4.02569 3.70104 4.50382 3.80729 4.97604C3.91354 5.44826 4.06701 5.91458 4.26771 6.375ZM10.6073 12.7146C11.0677 12.9153 11.537 13.0747 12.0151 13.1927C12.4932 13.3108 12.9743 13.3875 13.4583 13.4229V11.8646L11.7937 11.5281L10.6073 12.7146Z" fill="white"/>
</g>
</svg>
